STARTFONT 2.1
FONT -FontForge-Indie Flower-Book-R-Normal--10-100-72-72-P-46-ISO10646-1
SIZE 10 72 72
FONTBOUNDINGBOX 12 15 -1 -5
COMMENT "Generated by fontforge, http://fontforge.sourceforge.net"
COMMENT "Copyright (c) 2010, Kimberly Geswein (kimberlygeswein.com)"
STARTPROPERTIES 39
FOUNDRY "FontForge"
FAMILY_NAME "Indie Flower"
WEIGHT_NAME "Book"
SLANT "R"
SETWIDTH_NAME "Normal"
ADD_STYLE_NAME ""
PIXEL_SIZE 10
POINT_SIZE 100
RESOLUTION_X 72
RESOLUTION_Y 72
SPACING "P"
AVERAGE_WIDTH 46
CHARSET_REGISTRY "ISO10646"
CHARSET_ENCODING "1"
FONTNAME_REGISTRY ""
CHARSET_COLLECTIONS "ISO8859-2 ISO8859-9 ISO8859-4 ISO10646-1"
FONT_NAME "IndieFlower"
FACE_NAME "Indie Flower"
COPYRIGHT "Copyright (c) 2010, Kimberly Geswein (kimberlygeswein.com)"
FONT_VERSION "1.001 2010"
FONT_ASCENT 8
FONT_DESCENT 2
UNDERLINE_POSITION -1
UNDERLINE_THICKNESS 1
X_HEIGHT 3
CAP_HEIGHT 4
RAW_ASCENT 799
RAW_DESCENT 200
NORM_SPACE 4
RELATIVE_WEIGHT 40
RELATIVE_SETWIDTH 50
SUPERSCRIPT_X 0
SUPERSCRIPT_Y 4
SUPERSCRIPT_SIZE 6
SUBSCRIPT_X 0
SUBSCRIPT_Y 1
SUBSCRIPT_SIZE 6
AVG_LOWERCASE_WIDTH 45
AVG_UPPERCASE_WIDTH 53
ENDPROPERTIES
CHARS 356
STARTCHAR space
ENCODING 32
SWIDTH 375 0
DWIDTH 4 0
BBX 1 1 0 0
BITMAP
00
ENDCHAR
STARTCHAR exclam
ENCODING 33
SWIDTH 149 0
DWIDTH 2 0
BBX 1 8 0 0
BITMAP
80
80
80
80
80
00
00
80
ENDCHAR
STARTCHAR quotedbl
ENCODING 34
SWIDTH 234 0
DWIDTH 2 0
BBX 2 3 0 5
BITMAP
C0
C0
C0
ENDCHAR
STARTCHAR numbersign
ENCODING 35
SWIDTH 768 0
DWIDTH 8 0
BBX 7 5 0 0
BITMAP
28
1E
F8
7E
18
ENDCHAR
STARTCHAR dollar
ENCODING 36
SWIDTH 581 0
DWIDTH 6 0
BBX 6 9 0 0
BITMAP
30
10
78
30
18
38
B4
78
30
ENDCHAR
STARTCHAR percent
ENCODING 37
SWIDTH 636 0
DWIDTH 6 0
BBX 6 6 0 0
BITMAP
08
F0
D0
2C
34
48
ENDCHAR
STARTCHAR ampersand
ENCODING 38
SWIDTH 457 0
DWIDTH 5 0
BBX 4 7 0 0
BITMAP
20
60
40
50
E0
A0
D0
ENDCHAR
STARTCHAR quotesingle
ENCODING 39
SWIDTH 102 0
DWIDTH 1 0
BBX 1 2 0 5
BITMAP
80
80
ENDCHAR
STARTCHAR parenleft
ENCODING 40
SWIDTH 421 0
DWIDTH 4 0
BBX 4 6 0 0
BITMAP
10
60
80
80
80
E0
ENDCHAR
STARTCHAR parenright
ENCODING 41
SWIDTH 290 0
DWIDTH 3 0
BBX 3 7 0 -1
BITMAP
C0
40
20
20
40
40
80
ENDCHAR
STARTCHAR asterisk
ENCODING 42
SWIDTH 412 0
DWIDTH 4 0
BBX 4 4 0 2
BITMAP
D0
60
A0
30
ENDCHAR
STARTCHAR plus
ENCODING 43
SWIDTH 459 0
DWIDTH 5 0
BBX 4 4 0 0
BITMAP
40
20
F0
20
ENDCHAR
STARTCHAR comma
ENCODING 44
SWIDTH 130 0
DWIDTH 1 0
BBX 1 3 0 -2
BITMAP
80
80
80
ENDCHAR
STARTCHAR hyphen
ENCODING 45
SWIDTH 375 0
DWIDTH 4 0
BBX 3 1 0 2
BITMAP
E0
ENDCHAR
STARTCHAR period
ENCODING 46
SWIDTH 204 0
DWIDTH 2 0
BBX 2 2 0 0
BITMAP
40
C0
ENDCHAR
STARTCHAR slash
ENCODING 47
SWIDTH 309 0
DWIDTH 3 0
BBX 3 8 0 0
BITMAP
20
20
20
40
40
40
80
80
ENDCHAR
STARTCHAR zero
ENCODING 48
SWIDTH 430 0
DWIDTH 4 0
BBX 4 4 0 0
BITMAP
60
90
90
60
ENDCHAR
STARTCHAR one
ENCODING 49
SWIDTH 318 0
DWIDTH 3 0
BBX 3 6 0 0
BITMAP
20
20
60
A0
40
40
ENDCHAR
STARTCHAR two
ENCODING 50
SWIDTH 497 0
DWIDTH 5 0
BBX 5 5 0 0
BITMAP
30
10
10
90
F8
ENDCHAR
STARTCHAR three
ENCODING 51
SWIDTH 430 0
DWIDTH 4 0
BBX 4 5 0 0
BITMAP
E0
20
60
90
70
ENDCHAR
STARTCHAR four
ENCODING 52
SWIDTH 412 0
DWIDTH 4 0
BBX 4 6 0 0
BITMAP
80
90
90
B0
50
10
ENDCHAR
STARTCHAR five
ENCODING 53
SWIDTH 571 0
DWIDTH 6 0
BBX 5 7 0 0
BITMAP
38
40
40
30
08
88
70
ENDCHAR
STARTCHAR six
ENCODING 54
SWIDTH 440 0
DWIDTH 4 0
BBX 4 6 0 0
BITMAP
30
40
80
F0
90
70
ENDCHAR
STARTCHAR seven
ENCODING 55
SWIDTH 412 0
DWIDTH 4 0
BBX 4 5 0 0
BITMAP
E0
20
70
20
40
ENDCHAR
STARTCHAR eight
ENCODING 56
SWIDTH 375 0
DWIDTH 4 0
BBX 3 6 0 0
BITMAP
40
A0
C0
A0
A0
60
ENDCHAR
STARTCHAR nine
ENCODING 57
SWIDTH 300 0
DWIDTH 3 0
BBX 3 6 0 0
BITMAP
E0
A0
A0
60
20
20
ENDCHAR
STARTCHAR colon
ENCODING 58
SWIDTH 84 0
DWIDTH 1 0
BBX 1 2 0 1
BITMAP
80
80
ENDCHAR
STARTCHAR semicolon
ENCODING 59
SWIDTH 128 0
DWIDTH 1 0
BBX 1 6 0 -2
BITMAP
80
00
00
80
80
80
ENDCHAR
STARTCHAR less
ENCODING 60
SWIDTH 487 0
DWIDTH 5 0
BBX 5 4 0 0
BITMAP
18
20
C0
70
ENDCHAR
STARTCHAR equal
ENCODING 61
SWIDTH 524 0
DWIDTH 5 0
BBX 5 3 0 1
BITMAP
F8
00
F8
ENDCHAR
STARTCHAR greater
ENCODING 62
SWIDTH 403 0
DWIDTH 4 0
BBX 4 5 0 0
BITMAP
80
60
10
20
C0
ENDCHAR
STARTCHAR question
ENCODING 63
SWIDTH 272 0
DWIDTH 3 0
BBX 3 9 0 0
BITMAP
C0
40
20
40
40
40
00
00
40
ENDCHAR
STARTCHAR at
ENCODING 64
SWIDTH 815 0
DWIDTH 8 0
BBX 8 9 0 0
BITMAP
38
46
81
BD
A5
A5
9A
40
3F
ENDCHAR
STARTCHAR A
ENCODING 65
SWIDTH 562 0
DWIDTH 6 0
BBX 5 8 0 0
BITMAP
20
D0
88
88
88
F8
88
88
ENDCHAR
STARTCHAR B
ENCODING 66
SWIDTH 741 0
DWIDTH 7 0
BBX 7 7 0 0
BITMAP
70
A8
28
3C
22
22
1E
ENDCHAR
STARTCHAR C
ENCODING 67
SWIDTH 515 0
DWIDTH 5 0
BBX 5 6 0 0
BITMAP
70
80
80
80
80
78
ENDCHAR
STARTCHAR D
ENCODING 68
SWIDTH 741 0
DWIDTH 7 0
BBX 7 6 0 0
BITMAP
F8
14
12
12
12
3C
ENDCHAR
STARTCHAR E
ENCODING 69
SWIDTH 524 0
DWIDTH 5 0
BBX 5 6 0 0
BITMAP
F8
80
F0
80
80
F8
ENDCHAR
STARTCHAR F
ENCODING 70
SWIDTH 514 0
DWIDTH 5 0
BBX 6 6 0 0
BITMAP
FC
40
40
F8
40
60
ENDCHAR
STARTCHAR G
ENCODING 71
SWIDTH 571 0
DWIDTH 6 0
BBX 6 6 0 -1
BITMAP
38
40
B8
88
78
04
ENDCHAR
STARTCHAR H
ENCODING 72
SWIDTH 524 0
DWIDTH 5 0
BBX 5 7 0 0
BITMAP
08
88
88
98
E8
88
88
ENDCHAR
STARTCHAR I
ENCODING 73
SWIDTH 167 0
DWIDTH 2 0
BBX 2 6 0 0
BITMAP
80
80
80
80
80
C0
ENDCHAR
STARTCHAR J
ENCODING 74
SWIDTH 439 0
DWIDTH 4 0
BBX 4 7 0 0
BITMAP
10
10
10
90
90
50
30
ENDCHAR
STARTCHAR K
ENCODING 75
SWIDTH 468 0
DWIDTH 5 0
BBX 4 6 0 0
BITMAP
A0
C0
80
C0
A0
90
ENDCHAR
STARTCHAR L
ENCODING 76
SWIDTH 346 0
DWIDTH 3 0
BBX 3 5 0 0
BITMAP
80
80
80
80
60
ENDCHAR
STARTCHAR M
ENCODING 77
SWIDTH 534 0
DWIDTH 5 0
BBX 5 6 0 0
BITMAP
88
58
A8
88
88
88
ENDCHAR
STARTCHAR N
ENCODING 78
SWIDTH 609 0
DWIDTH 6 0
BBX 6 5 0 0
BITMAP
88
88
C4
A4
98
ENDCHAR
STARTCHAR O
ENCODING 79
SWIDTH 609 0
DWIDTH 6 0
BBX 6 5 0 0
BITMAP
60
98
84
84
78
ENDCHAR
STARTCHAR P
ENCODING 80
SWIDTH 627 0
DWIDTH 6 0
BBX 6 6 0 0
BITMAP
F8
24
24
38
20
20
ENDCHAR
STARTCHAR Q
ENCODING 81
SWIDTH 642 0
DWIDTH 6 0
BBX 7 6 0 -1
BITMAP
F0
98
84
94
78
06
ENDCHAR
STARTCHAR R
ENCODING 82
SWIDTH 579 0
DWIDTH 6 0
BBX 6 6 0 0
BITMAP
F8
48
70
40
60
5C
ENDCHAR
STARTCHAR S
ENCODING 83
SWIDTH 627 0
DWIDTH 6 0
BBX 6 6 0 0
BITMAP
38
40
20
18
84
7C
ENDCHAR
STARTCHAR T
ENCODING 84
SWIDTH 581 0
DWIDTH 6 0
BBX 7 6 0 0
BITMAP
FE
10
10
10
10
18
ENDCHAR
STARTCHAR U
ENCODING 85
SWIDTH 571 0
DWIDTH 6 0
BBX 6 5 0 0
BITMAP
88
88
88
88
74
ENDCHAR
STARTCHAR V
ENCODING 86
SWIDTH 421 0
DWIDTH 4 0
BBX 4 5 0 0
BITMAP
90
90
50
60
20
ENDCHAR
STARTCHAR W
ENCODING 87
SWIDTH 703 0
DWIDTH 7 0
BBX 7 5 0 0
BITMAP
84
82
A2
92
6C
ENDCHAR
STARTCHAR X
ENCODING 88
SWIDTH 534 0
DWIDTH 5 0
BBX 5 6 0 -1
BITMAP
48
50
20
60
90
80
ENDCHAR
STARTCHAR Y
ENCODING 89
SWIDTH 403 0
DWIDTH 4 0
BBX 4 6 0 0
BITMAP
90
50
20
20
20
40
ENDCHAR
STARTCHAR Z
ENCODING 90
SWIDTH 571 0
DWIDTH 6 0
BBX 6 6 0 0
BITMAP
F0
10
10
68
20
3C
ENDCHAR
STARTCHAR bracketleft
ENCODING 91
SWIDTH 477 0
DWIDTH 5 0
BBX 5 8 0 -1
BITMAP
38
C0
80
80
80
40
40
78
ENDCHAR
STARTCHAR backslash
ENCODING 92
SWIDTH 430 0
DWIDTH 4 0
BBX 4 5 0 0
BITMAP
80
40
20
10
10
ENDCHAR
STARTCHAR bracketright
ENCODING 93
SWIDTH 430 0
DWIDTH 4 0
BBX 4 9 0 -1
BITMAP
E0
10
10
10
10
10
10
10
70
ENDCHAR
STARTCHAR asciicircum
ENCODING 94
SWIDTH 375 0
DWIDTH 4 0
BBX 3 2 0 5
BITMAP
60
A0
ENDCHAR
STARTCHAR underscore
ENCODING 95
SWIDTH 656 0
DWIDTH 7 0
BBX 6 1 0 0
BITMAP
FC
ENDCHAR
STARTCHAR grave
ENCODING 96
SWIDTH 172 0
DWIDTH 2 0
BBX 2 2 0 4
BITMAP
80
40
ENDCHAR
STARTCHAR a
ENCODING 97
SWIDTH 505 0
DWIDTH 5 0
BBX 5 5 0 0
BITMAP
60
10
78
88
78
ENDCHAR
STARTCHAR b
ENCODING 98
SWIDTH 497 0
DWIDTH 5 0
BBX 5 6 0 0
BITMAP
80
80
80
F0
88
70
ENDCHAR
STARTCHAR c
ENCODING 99
SWIDTH 449 0
DWIDTH 5 0
BBX 4 4 0 0
BITMAP
60
B0
80
70
ENDCHAR
STARTCHAR d
ENCODING 100
SWIDTH 524 0
DWIDTH 5 0
BBX 5 7 0 0
BITMAP
10
10
68
98
88
98
68
ENDCHAR
STARTCHAR e
ENCODING 101
SWIDTH 515 0
DWIDTH 5 0
BBX 5 5 0 0
BITMAP
70
90
E0
80
78
ENDCHAR
STARTCHAR f
ENCODING 102
SWIDTH 376 0
DWIDTH 4 0
BBX 5 7 0 0
BITMAP
30
48
80
40
F0
40
20
ENDCHAR
STARTCHAR g
ENCODING 103
SWIDTH 366 0
DWIDTH 4 0
BBX 5 9 -1 -5
BITMAP
30
50
50
28
08
08
88
90
70
ENDCHAR
STARTCHAR h
ENCODING 104
SWIDTH 427 0
DWIDTH 4 0
BBX 4 7 0 0
BITMAP
80
80
C0
A0
90
90
90
ENDCHAR
STARTCHAR i
ENCODING 105
SWIDTH 174 0
DWIDTH 2 0
BBX 2 6 0 0
BITMAP
80
00
80
80
80
40
ENDCHAR
STARTCHAR j
ENCODING 106
SWIDTH 200 0
DWIDTH 2 0
BBX 3 10 -1 -4
BITMAP
40
00
40
20
20
20
20
A0
A0
60
ENDCHAR
STARTCHAR k
ENCODING 107
SWIDTH 403 0
DWIDTH 4 0
BBX 4 6 0 0
BITMAP
80
A0
C0
40
40
B0
ENDCHAR
STARTCHAR l
ENCODING 108
SWIDTH 120 0
DWIDTH 1 0
BBX 1 6 0 0
BITMAP
80
80
80
80
80
80
ENDCHAR
STARTCHAR m
ENCODING 109
SWIDTH 750 0
DWIDTH 8 0
BBX 7 4 0 0
BITMAP
EE
92
92
82
ENDCHAR
STARTCHAR n
ENCODING 110
SWIDTH 459 0
DWIDTH 5 0
BBX 4 4 0 0
BITMAP
F0
90
90
90
ENDCHAR
STARTCHAR o
ENCODING 111
SWIDTH 487 0
DWIDTH 5 0
BBX 5 4 0 0
BITMAP
70
88
88
70
ENDCHAR
STARTCHAR p
ENCODING 112
SWIDTH 520 0
DWIDTH 5 0
BBX 5 7 0 -4
BITMAP
F8
88
F0
80
80
40
40
ENDCHAR
STARTCHAR q
ENCODING 113
SWIDTH 412 0
DWIDTH 4 0
BBX 4 8 0 -3
BITMAP
70
90
90
90
60
10
10
10
ENDCHAR
STARTCHAR r
ENCODING 114
SWIDTH 346 0
DWIDTH 3 0
BBX 3 5 0 0
BITMAP
40
A0
80
80
80
ENDCHAR
STARTCHAR s
ENCODING 115
SWIDTH 514 0
DWIDTH 5 0
BBX 5 5 0 0
BITMAP
20
E0
60
18
F8
ENDCHAR
STARTCHAR t
ENCODING 116
SWIDTH 328 0
DWIDTH 3 0
BBX 3 6 0 0
BITMAP
40
40
E0
40
40
40
ENDCHAR
STARTCHAR u
ENCODING 117
SWIDTH 501 0
DWIDTH 5 0
BBX 5 4 0 0
BITMAP
90
90
90
68
ENDCHAR
STARTCHAR v
ENCODING 118
SWIDTH 389 0
DWIDTH 4 0
BBX 4 4 0 0
BITMAP
80
B0
60
20
ENDCHAR
STARTCHAR w
ENCODING 119
SWIDTH 656 0
DWIDTH 7 0
BBX 6 4 0 0
BITMAP
84
94
94
6C
ENDCHAR
STARTCHAR x
ENCODING 120
SWIDTH 448 0
DWIDTH 4 0
BBX 4 5 0 -1
BITMAP
90
60
60
90
10
ENDCHAR
STARTCHAR y
ENCODING 121
SWIDTH 487 0
DWIDTH 5 0
BBX 5 9 0 -5
BITMAP
90
88
88
78
08
08
08
90
70
ENDCHAR
STARTCHAR z
ENCODING 122
SWIDTH 459 0
DWIDTH 5 0
BBX 4 5 0 0
BITMAP
E0
20
F0
40
70
ENDCHAR
STARTCHAR braceleft
ENCODING 123
SWIDTH 393 0
DWIDTH 4 0
BBX 4 10 0 -1
BITMAP
70
80
80
80
60
E0
20
40
80
70
ENDCHAR
STARTCHAR bar
ENCODING 124
SWIDTH 149 0
DWIDTH 2 0
BBX 1 6 0 0
BITMAP
80
80
80
80
80
80
ENDCHAR
STARTCHAR braceright
ENCODING 125
SWIDTH 440 0
DWIDTH 4 0
BBX 4 11 0 -2
BITMAP
F0
10
20
40
70
40
20
10
10
10
F0
ENDCHAR
STARTCHAR asciitilde
ENCODING 126
SWIDTH 402 0
DWIDTH 4 0
BBX 4 1 0 4
BITMAP
F0
ENDCHAR
STARTCHAR nonbreakingspace
ENCODING 160
SWIDTH 375 0
DWIDTH 4 0
BBX 1 1 0 0
BITMAP
00
ENDCHAR
STARTCHAR exclamdown
ENCODING 161
SWIDTH 149 0
DWIDTH 2 0
BBX 1 7 0 0
BITMAP
80
00
80
80
80
80
80
ENDCHAR
STARTCHAR cent
ENCODING 162
SWIDTH 449 0
DWIDTH 5 0
BBX 4 6 0 -1
BITMAP
40
B0
A0
A0
70
20
ENDCHAR
STARTCHAR sterling
ENCODING 163
SWIDTH 758 0
DWIDTH 8 0
BBX 7 7 0 0
BITMAP
0E
10
1C
70
10
20
F8
ENDCHAR
STARTCHAR currency
ENCODING 164
SWIDTH 618 0
DWIDTH 6 0
BBX 6 5 0 0
BITMAP
FC
48
88
48
B8
ENDCHAR
STARTCHAR yen
ENCODING 165
SWIDTH 389 0
DWIDTH 4 0
BBX 4 7 0 0
BITMAP
90
60
20
40
E0
E0
40
ENDCHAR
STARTCHAR brokenbar
ENCODING 166
SWIDTH 117 0
DWIDTH 1 0
BBX 1 6 0 0
BITMAP
80
80
80
80
80
80
ENDCHAR
STARTCHAR section
ENCODING 167
SWIDTH 514 0
DWIDTH 5 0
BBX 5 7 0 0
BITMAP
60
90
78
88
78
08
F8
ENDCHAR
STARTCHAR dieresis
ENCODING 168
SWIDTH 397 0
DWIDTH 4 0
BBX 2 1 1 4
BITMAP
C0
ENDCHAR
STARTCHAR copyright
ENCODING 169
SWIDTH 667 0
DWIDTH 7 0
BBX 7 6 0 0
BITMAP
30
6C
D4
C4
AE
78
ENDCHAR
STARTCHAR ordfeminine
ENCODING 170
SWIDTH 266 0
DWIDTH 3 0
BBX 2 3 0 2
BITMAP
40
40
C0
ENDCHAR
STARTCHAR guillemotleft
ENCODING 171
SWIDTH 755 0
DWIDTH 8 0
BBX 7 5 0 0
BITMAP
02
1C
38
DC
72
ENDCHAR
STARTCHAR logicalnot
ENCODING 172
SWIDTH 369 0
DWIDTH 4 0
BBX 3 2 0 2
BITMAP
E0
20
ENDCHAR
STARTCHAR hyphen_
ENCODING 173
SWIDTH 375 0
DWIDTH 4 0
BBX 3 1 0 2
BITMAP
E0
ENDCHAR
STARTCHAR registered
ENCODING 174
SWIDTH 708 0
DWIDTH 7 0
BBX 7 6 0 0
BITMAP
30
EC
EC
B2
B4
78
ENDCHAR
STARTCHAR macron
ENCODING 175
SWIDTH 287 0
DWIDTH 3 0
BBX 3 1 0 5
BITMAP
E0
ENDCHAR
STARTCHAR degree
ENCODING 176
SWIDTH 254 0
DWIDTH 3 0
BBX 2 3 0 3
BITMAP
40
C0
C0
ENDCHAR
STARTCHAR plusminus
ENCODING 177
SWIDTH 459 0
DWIDTH 5 0
BBX 4 5 0 0
BITMAP
40
40
F0
20
50
ENDCHAR
STARTCHAR twosuperior
ENCODING 178
SWIDTH 296 0
DWIDTH 3 0
BBX 3 3 0 2
BITMAP
C0
40
E0
ENDCHAR
STARTCHAR threesuperior
ENCODING 179
SWIDTH 204 0
DWIDTH 2 0
BBX 2 3 0 3
BITMAP
C0
C0
C0
ENDCHAR
STARTCHAR acute
ENCODING 180
SWIDTH 180 0
DWIDTH 2 0
BBX 2 1 0 4
BITMAP
C0
ENDCHAR
STARTCHAR mu
ENCODING 181
SWIDTH 501 0
DWIDTH 5 0
BBX 5 6 0 -1
BITMAP
80
90
90
90
E8
80
ENDCHAR
STARTCHAR paragraph
ENCODING 182
SWIDTH 413 0
DWIDTH 4 0
BBX 4 5 0 0
BITMAP
70
F0
30
30
30
ENDCHAR
STARTCHAR periodcentered
ENCODING 183
SWIDTH 212 0
DWIDTH 2 0
BBX 2 1 0 2
BITMAP
C0
ENDCHAR
STARTCHAR cedilla
ENCODING 184
SWIDTH 445 0
DWIDTH 4 0
BBX 3 3 1 -3
BITMAP
80
60
E0
ENDCHAR
STARTCHAR onesuperior
ENCODING 185
SWIDTH 197 0
DWIDTH 2 0
BBX 2 4 0 2
BITMAP
40
40
C0
80
ENDCHAR
STARTCHAR ordmasculine
ENCODING 186
SWIDTH 254 0
DWIDTH 3 0
BBX 2 3 0 3
BITMAP
40
C0
C0
ENDCHAR
STARTCHAR guillemotright
ENCODING 187
SWIDTH 659 0
DWIDTH 7 0
BBX 6 5 0 0
BITMAP
A0
7C
14
28
F0
ENDCHAR
STARTCHAR onequarter
ENCODING 188
SWIDTH 626 0
DWIDTH 6 0
BBX 6 8 0 0
BITMAP
20
60
60
E0
70
64
5C
44
ENDCHAR
STARTCHAR onehalf
ENCODING 189
SWIDTH 566 0
DWIDTH 6 0
BBX 5 8 0 0
BITMAP
20
70
60
60
F8
48
48
78
ENDCHAR
STARTCHAR threequarters
ENCODING 190
SWIDTH 566 0
DWIDTH 6 0
BBX 5 8 0 -1
BITMAP
10
E0
E0
D0
28
38
48
40
ENDCHAR
STARTCHAR questiondown
ENCODING 191
SWIDTH 272 0
DWIDTH 3 0
BBX 3 7 0 0
BITMAP
80
00
00
C0
40
80
E0
ENDCHAR
STARTCHAR Agrave
ENCODING 192
SWIDTH 562 0
DWIDTH 6 0
BBX 5 10 0 0
BITMAP
40
20
20
D0
88
88
88
F8
88
88
ENDCHAR
STARTCHAR Aacute
ENCODING 193
SWIDTH 562 0
DWIDTH 6 0
BBX 5 9 0 0
BITMAP
60
20
D0
88
88
88
F8
88
88
ENDCHAR
STARTCHAR Acircumflex
ENCODING 194
SWIDTH 562 0
DWIDTH 6 0
BBX 5 9 0 0
BITMAP
20
70
90
88
88
88
F8
88
88
ENDCHAR
STARTCHAR Atilde
ENCODING 195
SWIDTH 562 0
DWIDTH 6 0
BBX 5 9 0 0
BITMAP
F0
20
D0
88
88
88
F8
88
88
ENDCHAR
STARTCHAR Adieresis
ENCODING 196
SWIDTH 562 0
DWIDTH 6 0
BBX 5 9 0 0
BITMAP
50
20
D0
88
88
88
F8
88
88
ENDCHAR
STARTCHAR Aring
ENCODING 197
SWIDTH 562 0
DWIDTH 6 0
BBX 5 9 0 0
BITMAP
60
20
D0
88
88
88
F8
88
88
ENDCHAR
STARTCHAR AE
ENCODING 198
SWIDTH 960 0
DWIDTH 10 0
BBX 9 8 0 0
BITMAP
2000
D000
8F80
8400
8780
F800
8800
8780
ENDCHAR
STARTCHAR Ccedilla
ENCODING 199
SWIDTH 515 0
DWIDTH 5 0
BBX 5 9 0 -3
BITMAP
70
80
80
80
80
78
40
30
70
ENDCHAR
STARTCHAR Egrave
ENCODING 200
SWIDTH 524 0
DWIDTH 5 0
BBX 5 8 0 0
BITMAP
40
20
D8
80
F0
80
80
F8
ENDCHAR
STARTCHAR Eacute
ENCODING 201
SWIDTH 524 0
DWIDTH 5 0
BBX 5 7 0 0
BITMAP
60
B8
80
F0
80
80
F8
ENDCHAR
STARTCHAR Ecircumflex
ENCODING 202
SWIDTH 524 0
DWIDTH 5 0
BBX 5 9 0 0
BITMAP
20
50
00
F8
80
F0
80
80
F8
ENDCHAR
STARTCHAR Edieresis
ENCODING 203
SWIDTH 524 0
DWIDTH 5 0
BBX 5 7 0 0
BITMAP
50
A8
80
F0
80
80
F8
ENDCHAR
STARTCHAR Igrave
ENCODING 204
SWIDTH 167 0
DWIDTH 2 0
BBX 2 8 0 0
BITMAP
80
80
80
80
80
80
80
C0
ENDCHAR
STARTCHAR Iacute
ENCODING 205
SWIDTH 167 0
DWIDTH 2 0
BBX 2 7 0 0
BITMAP
80
80
80
80
80
80
C0
ENDCHAR
STARTCHAR Icircumflex
ENCODING 206
SWIDTH 167 0
DWIDTH 2 0
BBX 3 9 -1 0
BITMAP
60
A0
00
80
40
40
40
40
60
ENDCHAR
STARTCHAR Idieresis
ENCODING 207
SWIDTH 167 0
DWIDTH 2 0
BBX 3 7 -1 0
BITMAP
E0
80
40
40
40
40
60
ENDCHAR
STARTCHAR Eth
ENCODING 208
SWIDTH 741 0
DWIDTH 7 0
BBX 7 6 0 0
BITMAP
F8
14
1A
32
12
3C
ENDCHAR
STARTCHAR Ntilde
ENCODING 209
SWIDTH 609 0
DWIDTH 6 0
BBX 6 7 0 0
BITMAP
78
00
88
88
C4
A4
98
ENDCHAR
STARTCHAR Ograve
ENCODING 210
SWIDTH 609 0
DWIDTH 6 0
BBX 6 8 0 0
BITMAP
20
10
00
60
98
84
84
78
ENDCHAR
STARTCHAR Oacute
ENCODING 211
SWIDTH 609 0
DWIDTH 6 0
BBX 6 7 0 0
BITMAP
30
00
60
98
84
84
78
ENDCHAR
STARTCHAR Ocircumflex
ENCODING 212
SWIDTH 609 0
DWIDTH 6 0
BBX 6 7 0 0
BITMAP
20
50
60
98
84
84
78
ENDCHAR
STARTCHAR Otilde
ENCODING 213
SWIDTH 609 0
DWIDTH 6 0
BBX 6 6 0 0
BITMAP
F0
60
98
84
84
78
ENDCHAR
STARTCHAR Odieresis
ENCODING 214
SWIDTH 609 0
DWIDTH 6 0
BBX 6 7 0 0
BITMAP
30
00
60
98
84
84
78
ENDCHAR
STARTCHAR multiply
ENCODING 215
SWIDTH 448 0
DWIDTH 4 0
BBX 2 2 1 1
BITMAP
C0
C0
ENDCHAR
STARTCHAR Oslash
ENCODING 216
SWIDTH 609 0
DWIDTH 6 0
BBX 6 7 0 -1
BITMAP
10
70
A8
A4
A4
78
40
ENDCHAR
STARTCHAR Ugrave
ENCODING 217
SWIDTH 571 0
DWIDTH 6 0
BBX 6 8 0 0
BITMAP
20
10
00
88
88
88
88
74
ENDCHAR
STARTCHAR Uacute
ENCODING 218
SWIDTH 571 0
DWIDTH 6 0
BBX 6 7 0 0
BITMAP
20
00
88
88
88
88
74
ENDCHAR
STARTCHAR Ucircumflex
ENCODING 219
SWIDTH 571 0
DWIDTH 6 0
BBX 6 9 0 0
BITMAP
30
50
00
00
88
88
88
88
74
ENDCHAR
STARTCHAR Udieresis
ENCODING 220
SWIDTH 571 0
DWIDTH 6 0
BBX 6 7 0 0
BITMAP
70
00
88
88
88
88
74
ENDCHAR
STARTCHAR Yacute
ENCODING 221
SWIDTH 403 0
DWIDTH 4 0
BBX 4 8 0 0
BITMAP
20
00
90
50
20
20
20
40
ENDCHAR
STARTCHAR Thorn
ENCODING 222
SWIDTH 497 0
DWIDTH 5 0
BBX 5 8 0 -2
BITMAP
80
80
80
F0
88
70
80
80
ENDCHAR
STARTCHAR germandbls
ENCODING 223
SWIDTH 590 0
DWIDTH 6 0
BBX 6 8 0 -1
BITMAP
E0
90
A0
90
88
84
B8
C0
ENDCHAR
STARTCHAR agrave
ENCODING 224
SWIDTH 505 0
DWIDTH 5 0
BBX 5 7 0 0
BITMAP
40
20
60
10
78
88
78
ENDCHAR
STARTCHAR aacute
ENCODING 225
SWIDTH 505 0
DWIDTH 5 0
BBX 5 6 0 0
BITMAP
60
60
10
78
88
78
ENDCHAR
STARTCHAR acircumflex
ENCODING 226
SWIDTH 505 0
DWIDTH 5 0
BBX 5 7 0 0
BITMAP
20
50
60
10
78
88
78
ENDCHAR
STARTCHAR atilde
ENCODING 227
SWIDTH 505 0
DWIDTH 5 0
BBX 5 7 0 0
BITMAP
F0
00
60
10
78
88
78
ENDCHAR
STARTCHAR adieresis
ENCODING 228
SWIDTH 505 0
DWIDTH 5 0
BBX 5 6 0 0
BITMAP
50
60
10
78
88
78
ENDCHAR
STARTCHAR aring
ENCODING 229
SWIDTH 505 0
DWIDTH 5 0
BBX 5 7 0 0
BITMAP
20
60
60
10
78
88
78
ENDCHAR
STARTCHAR ae
ENCODING 230
SWIDTH 881 0
DWIDTH 9 0
BBX 9 5 0 0
BITMAP
6600
1900
7A00
8C00
7F80
ENDCHAR
STARTCHAR ccedilla
ENCODING 231
SWIDTH 449 0
DWIDTH 5 0
BBX 4 7 0 -3
BITMAP
F0
80
80
70
40
30
70
ENDCHAR
STARTCHAR egrave
ENCODING 232
SWIDTH 515 0
DWIDTH 5 0
BBX 5 7 0 0
BITMAP
40
20
50
90
E0
80
78
ENDCHAR
STARTCHAR eacute
ENCODING 233
SWIDTH 515 0
DWIDTH 5 0
BBX 5 7 0 0
BITMAP
60
00
70
90
E0
80
78
ENDCHAR
STARTCHAR ecircumflex
ENCODING 234
SWIDTH 515 0
DWIDTH 5 0
BBX 5 7 0 0
BITMAP
20
50
70
90
E0
80
78
ENDCHAR
STARTCHAR edieresis
ENCODING 235
SWIDTH 515 0
DWIDTH 5 0
BBX 5 6 0 0
BITMAP
50
70
90
E0
80
78
ENDCHAR
STARTCHAR igrave
ENCODING 236
SWIDTH 174 0
DWIDTH 2 0
BBX 2 6 0 0
BITMAP
80
40
80
80
80
40
ENDCHAR
STARTCHAR iacute
ENCODING 237
SWIDTH 174 0
DWIDTH 2 0
BBX 2 6 0 0
BITMAP
80
00
80
80
80
40
ENDCHAR
STARTCHAR icircumflex
ENCODING 238
SWIDTH 174 0
DWIDTH 2 0
BBX 2 7 0 0
BITMAP
C0
C0
00
80
80
80
40
ENDCHAR
STARTCHAR idieresis
ENCODING 239
SWIDTH 174 0
DWIDTH 2 0
BBX 2 6 0 0
BITMAP
C0
00
80
80
80
40
ENDCHAR
STARTCHAR eth
ENCODING 240
SWIDTH 407 0
DWIDTH 4 0
BBX 4 5 0 0
BITMAP
F0
60
70
90
70
ENDCHAR
STARTCHAR ntilde
ENCODING 241
SWIDTH 459 0
DWIDTH 5 0
BBX 4 6 0 0
BITMAP
F0
00
F0
90
90
90
ENDCHAR
STARTCHAR ograve
ENCODING 242
SWIDTH 487 0
DWIDTH 5 0
BBX 5 6 0 0
BITMAP
40
20
70
88
88
70
ENDCHAR
STARTCHAR oacute
ENCODING 243
SWIDTH 487 0
DWIDTH 5 0
BBX 5 6 0 0
BITMAP
60
00
70
88
88
70
ENDCHAR
STARTCHAR ocircumflex
ENCODING 244
SWIDTH 487 0
DWIDTH 5 0
BBX 5 6 0 0
BITMAP
20
50
70
88
88
70
ENDCHAR
STARTCHAR otilde
ENCODING 245
SWIDTH 487 0
DWIDTH 5 0
BBX 5 5 0 0
BITMAP
F0
70
88
88
70
ENDCHAR
STARTCHAR odieresis
ENCODING 246
SWIDTH 487 0
DWIDTH 5 0
BBX 5 5 0 0
BITMAP
50
70
88
88
70
ENDCHAR
STARTCHAR divide
ENCODING 247
SWIDTH 335 0
DWIDTH 3 0
BBX 3 2 0 1
BITMAP
60
C0
ENDCHAR
STARTCHAR oslash
ENCODING 248
SWIDTH 487 0
DWIDTH 5 0
BBX 5 5 0 0
BITMAP
10
70
A8
C8
70
ENDCHAR
STARTCHAR ugrave
ENCODING 249
SWIDTH 501 0
DWIDTH 5 0
BBX 5 7 0 0
BITMAP
40
20
00
90
90
90
68
ENDCHAR
STARTCHAR uacute
ENCODING 250
SWIDTH 501 0
DWIDTH 5 0
BBX 5 6 0 0
BITMAP
60
00
90
90
90
68
ENDCHAR
STARTCHAR ucircumflex
ENCODING 251
SWIDTH 501 0
DWIDTH 5 0
BBX 5 7 0 0
BITMAP
20
50
00
90
90
90
68
ENDCHAR
STARTCHAR udieresis
ENCODING 252
SWIDTH 501 0
DWIDTH 5 0
BBX 5 6 0 0
BITMAP
70
00
90
90
90
68
ENDCHAR
STARTCHAR yacute
ENCODING 253
SWIDTH 487 0
DWIDTH 5 0
BBX 5 11 0 -5
BITMAP
60
00
90
88
88
78
08
08
08
90
70
ENDCHAR
STARTCHAR thorn
ENCODING 254
SWIDTH 520 0
DWIDTH 5 0
BBX 5 7 0 -2
BITMAP
80
B0
C8
88
F0
80
80
ENDCHAR
STARTCHAR ydieresis
ENCODING 255
SWIDTH 487 0
DWIDTH 5 0
BBX 5 11 0 -5
BITMAP
70
00
90
88
88
78
08
08
08
90
70
ENDCHAR
STARTCHAR Amacron
ENCODING 256
SWIDTH 562 0
DWIDTH 6 0
BBX 5 9 0 0
BITMAP
70
20
D0
88
88
88
F8
88
88
ENDCHAR
STARTCHAR amacron
ENCODING 257
SWIDTH 505 0
DWIDTH 5 0
BBX 5 6 0 0
BITMAP
70
60
10
78
88
78
ENDCHAR
STARTCHAR Abreve
ENCODING 258
SWIDTH 562 0
DWIDTH 6 0
BBX 5 9 0 0
BITMAP
30
20
D0
88
88
88
F8
88
88
ENDCHAR
STARTCHAR abreve
ENCODING 259
SWIDTH 505 0
DWIDTH 5 0
BBX 5 7 0 0
BITMAP
60
00
60
10
78
88
78
ENDCHAR
STARTCHAR Aogonek
ENCODING 260
SWIDTH 562 0
DWIDTH 6 0
BBX 6 9 0 -1
BITMAP
20
D0
88
88
88
F8
88
88
1C
ENDCHAR
STARTCHAR aogonek
ENCODING 261
SWIDTH 505 0
DWIDTH 5 0
BBX 5 6 0 -1
BITMAP
60
10
78
88
78
38
ENDCHAR
STARTCHAR Cacute
ENCODING 262
SWIDTH 515 0
DWIDTH 5 0
BBX 5 8 0 0
BITMAP
30
00
70
80
80
80
80
78
ENDCHAR
STARTCHAR cacute
ENCODING 263
SWIDTH 449 0
DWIDTH 5 0
BBX 4 6 0 0
BITMAP
20
00
60
B0
80
70
ENDCHAR
STARTCHAR Ccircumflex
ENCODING 264
SWIDTH 515 0
DWIDTH 5 0
BBX 5 9 0 0
BITMAP
20
50
00
70
80
80
80
80
78
ENDCHAR
STARTCHAR ccircumflex
ENCODING 265
SWIDTH 449 0
DWIDTH 5 0
BBX 4 7 0 0
BITMAP
20
50
00
60
B0
80
70
ENDCHAR
STARTCHAR Cdotaccent
ENCODING 266
SWIDTH 515 0
DWIDTH 5 0
BBX 5 8 0 0
BITMAP
20
00
70
80
80
80
80
78
ENDCHAR
STARTCHAR cdotaccent
ENCODING 267
SWIDTH 449 0
DWIDTH 5 0
BBX 4 6 0 0
BITMAP
40
20
60
B0
80
70
ENDCHAR
STARTCHAR Ccaron
ENCODING 268
SWIDTH 515 0
DWIDTH 5 0
BBX 5 8 0 0
BITMAP
30
00
70
80
80
80
80
78
ENDCHAR
STARTCHAR ccaron
ENCODING 269
SWIDTH 449 0
DWIDTH 5 0
BBX 4 6 0 0
BITMAP
70
00
60
B0
80
70
ENDCHAR
STARTCHAR Dcaron
ENCODING 270
SWIDTH 741 0
DWIDTH 7 0
BBX 7 8 0 0
BITMAP
38
00
F8
14
12
12
12
3C
ENDCHAR
STARTCHAR dcaron
ENCODING 271
SWIDTH 582 0
DWIDTH 6 0
BBX 6 7 0 0
BITMAP
14
14
68
98
88
98
68
ENDCHAR
STARTCHAR Dcroat
ENCODING 272
SWIDTH 741 0
DWIDTH 7 0
BBX 7 6 0 0
BITMAP
F8
14
12
3A
12
3C
ENDCHAR
STARTCHAR dcroat
ENCODING 273
SWIDTH 524 0
DWIDTH 5 0
BBX 5 7 0 0
BITMAP
10
38
48
B8
88
98
68
ENDCHAR
STARTCHAR Emacron
ENCODING 274
SWIDTH 524 0
DWIDTH 5 0
BBX 5 7 0 0
BITMAP
70
F8
80
F0
80
80
F8
ENDCHAR
STARTCHAR emacron
ENCODING 275
SWIDTH 515 0
DWIDTH 5 0
BBX 5 6 0 0
BITMAP
70
70
90
E0
80
78
ENDCHAR
STARTCHAR Ebreve
ENCODING 276
SWIDTH 524 0
DWIDTH 5 0
BBX 5 8 0 0
BITMAP
60
00
F8
80
F0
80
80
F8
ENDCHAR
STARTCHAR ebreve
ENCODING 277
SWIDTH 515 0
DWIDTH 5 0
BBX 5 7 0 0
BITMAP
50
20
70
90
E0
80
78
ENDCHAR
STARTCHAR Edotaccent
ENCODING 278
SWIDTH 524 0
DWIDTH 5 0
BBX 5 8 0 0
BITMAP
40
20
F8
80
F0
80
80
F8
ENDCHAR
STARTCHAR edotaccent
ENCODING 279
SWIDTH 515 0
DWIDTH 5 0
BBX 5 7 0 0
BITMAP
40
20
70
90
E0
80
78
ENDCHAR
STARTCHAR Eogonek
ENCODING 280
SWIDTH 524 0
DWIDTH 5 0
BBX 5 7 0 -1
BITMAP
F8
80
F0
80
80
F8
38
ENDCHAR
STARTCHAR eogonek
ENCODING 281
SWIDTH 515 0
DWIDTH 5 0
BBX 5 6 0 -1
BITMAP
70
90
E0
80
78
30
ENDCHAR
STARTCHAR Ecaron
ENCODING 282
SWIDTH 524 0
DWIDTH 5 0
BBX 5 8 0 0
BITMAP
70
00
F8
80
F0
80
80
F8
ENDCHAR
STARTCHAR ecaron
ENCODING 283
SWIDTH 515 0
DWIDTH 5 0
BBX 5 7 0 0
BITMAP
70
00
70
90
E0
80
78
ENDCHAR
STARTCHAR Gcircumflex
ENCODING 284
SWIDTH 571 0
DWIDTH 6 0
BBX 6 9 0 -1
BITMAP
18
28
00
38
40
B8
88
78
04
ENDCHAR
STARTCHAR gcircumflex
ENCODING 285
SWIDTH 366 0
DWIDTH 4 0
BBX 5 12 -1 -5
BITMAP
30
50
00
30
50
50
28
08
08
88
90
70
ENDCHAR
STARTCHAR Gbreve
ENCODING 286
SWIDTH 571 0
DWIDTH 6 0
BBX 6 8 0 -1
BITMAP
30
00
38
40
B8
88
78
04
ENDCHAR
STARTCHAR gbreve
ENCODING 287
SWIDTH 366 0
DWIDTH 4 0
BBX 5 11 -1 -5
BITMAP
50
20
30
50
50
28
08
08
88
90
70
ENDCHAR
STARTCHAR Gdotaccent
ENCODING 288
SWIDTH 571 0
DWIDTH 6 0
BBX 6 8 0 -1
BITMAP
20
10
38
40
B8
88
78
04
ENDCHAR
STARTCHAR gdotaccent
ENCODING 289
SWIDTH 366 0
DWIDTH 4 0
BBX 5 11 -1 -5
BITMAP
20
00
30
50
50
28
08
08
88
90
70
ENDCHAR
STARTCHAR Gcommaaccent
ENCODING 290
SWIDTH 571 0
DWIDTH 6 0
BBX 6 8 0 -3
BITMAP
38
40
B8
88
78
04
20
20
ENDCHAR
STARTCHAR gcommaaccent
ENCODING 291
SWIDTH 366 0
DWIDTH 4 0
BBX 5 14 -1 -5
BITMAP
20
20
00
00
00
30
50
50
28
08
08
88
90
70
ENDCHAR
STARTCHAR Hcircumflex
ENCODING 292
SWIDTH 524 0
DWIDTH 5 0
BBX 5 9 0 0
BITMAP
20
50
08
88
88
98
E8
88
88
ENDCHAR
STARTCHAR hcircumflex
ENCODING 293
SWIDTH 427 0
DWIDTH 4 0
BBX 4 8 0 0
BITMAP
20
D0
80
C0
A0
90
90
90
ENDCHAR
STARTCHAR hbar
ENCODING 295
SWIDTH 427 0
DWIDTH 4 0
BBX 5 7 -1 0
BITMAP
80
60
E0
50
48
48
48
ENDCHAR
STARTCHAR Itilde
ENCODING 296
SWIDTH 167 0
DWIDTH 2 0
BBX 4 7 -1 0
BITMAP
F0
80
40
40
40
40
60
ENDCHAR
STARTCHAR itilde
ENCODING 297
SWIDTH 174 0
DWIDTH 2 0
BBX 4 7 -1 0
BITMAP
50
A0
00
40
40
40
20
ENDCHAR
STARTCHAR imacron
ENCODING 299
SWIDTH 174 0
DWIDTH 2 0
BBX 2 6 0 0
BITMAP
C0
00
80
80
80
40
ENDCHAR
STARTCHAR Ibreve
ENCODING 300
SWIDTH 167 0
DWIDTH 2 0
BBX 2 8 0 0
BITMAP
C0
00
80
80
80
80
80
C0
ENDCHAR
STARTCHAR ibreve
ENCODING 301
SWIDTH 174 0
DWIDTH 2 0
BBX 2 6 0 0
BITMAP
C0
00
80
80
80
40
ENDCHAR
STARTCHAR Iogonek
ENCODING 302
SWIDTH 167 0
DWIDTH 2 0
BBX 2 7 0 -1
BITMAP
80
80
80
80
80
80
C0
ENDCHAR
STARTCHAR iogonek
ENCODING 303
SWIDTH 174 0
DWIDTH 2 0
BBX 2 7 0 -1
BITMAP
80
00
80
80
80
40
C0
ENDCHAR
STARTCHAR Idotaccent
ENCODING 304
SWIDTH 167 0
DWIDTH 2 0
BBX 2 8 0 0
BITMAP
80
00
80
80
80
80
80
C0
ENDCHAR
STARTCHAR dotlessi
ENCODING 305
SWIDTH 174 0
DWIDTH 2 0
BBX 1 4 1 0
BITMAP
80
80
80
80
ENDCHAR
STARTCHAR Jcircumflex
ENCODING 308
SWIDTH 439 0
DWIDTH 4 0
BBX 5 9 0 0
BITMAP
10
28
10
10
10
90
90
50
30
ENDCHAR
STARTCHAR jcircumflex
ENCODING 309
SWIDTH 200 0
DWIDTH 2 0
BBX 3 11 -1 -4
BITMAP
20
E0
00
40
20
20
20
20
A0
A0
60
ENDCHAR
STARTCHAR Kcommaaccent
ENCODING 310
SWIDTH 468 0
DWIDTH 5 0
BBX 4 9 0 -3
BITMAP
A0
C0
80
C0
A0
90
00
20
20
ENDCHAR
STARTCHAR kcommaaccent
ENCODING 311
SWIDTH 403 0
DWIDTH 4 0
BBX 4 9 0 -3
BITMAP
80
A0
C0
40
40
B0
00
40
40
ENDCHAR
STARTCHAR Lacute
ENCODING 313
SWIDTH 346 0
DWIDTH 3 0
BBX 3 7 0 0
BITMAP
60
00
80
80
80
80
60
ENDCHAR
STARTCHAR lacute
ENCODING 314
SWIDTH 120 0
DWIDTH 1 0
BBX 1 7 0 0
BITMAP
80
80
80
80
80
80
80
ENDCHAR
STARTCHAR Lcommaaccent
ENCODING 315
SWIDTH 346 0
DWIDTH 3 0
BBX 3 8 0 -3
BITMAP
80
80
80
80
60
00
40
40
ENDCHAR
STARTCHAR lcommaaccent
ENCODING 316
SWIDTH 120 0
DWIDTH 1 0
BBX 1 9 0 -3
BITMAP
80
80
80
80
80
80
00
80
80
ENDCHAR
STARTCHAR Lcaron
ENCODING 317
SWIDTH 346 0
DWIDTH 3 0
BBX 3 7 0 0
BITMAP
40
40
80
80
80
80
60
ENDCHAR
STARTCHAR lcaron
ENCODING 318
SWIDTH 222 0
DWIDTH 2 0
BBX 2 7 0 0
BITMAP
40
C0
80
80
80
80
80
ENDCHAR
STARTCHAR Ldot
ENCODING 319
SWIDTH 346 0
DWIDTH 3 0
BBX 3 5 0 0
BITMAP
80
80
C0
80
60
ENDCHAR
STARTCHAR ldot
ENCODING 320
SWIDTH 333 0
DWIDTH 3 0
BBX 3 6 0 0
BITMAP
80
80
80
A0
80
80
ENDCHAR
STARTCHAR Lslash
ENCODING 321
SWIDTH 346 0
DWIDTH 3 0
BBX 4 5 0 0
BITMAP
80
80
40
80
70
ENDCHAR
STARTCHAR lslash
ENCODING 322
SWIDTH 120 0
DWIDTH 1 0
BBX 3 6 -1 0
BITMAP
40
40
60
C0
40
40
ENDCHAR
STARTCHAR Nacute
ENCODING 323
SWIDTH 609 0
DWIDTH 6 0
BBX 6 7 0 0
BITMAP
30
00
88
88
C4
A4
98
ENDCHAR
STARTCHAR nacute
ENCODING 324
SWIDTH 459 0
DWIDTH 5 0
BBX 4 6 0 0
BITMAP
60
00
F0
90
90
90
ENDCHAR
STARTCHAR Ncommaaccent
ENCODING 325
SWIDTH 609 0
DWIDTH 6 0
BBX 6 8 0 -3
BITMAP
88
88
C4
A4
98
00
20
20
ENDCHAR
STARTCHAR ncommaaccent
ENCODING 326
SWIDTH 459 0
DWIDTH 5 0
BBX 4 7 0 -3
BITMAP
F0
90
90
90
00
20
20
ENDCHAR
STARTCHAR Ncaron
ENCODING 327
SWIDTH 609 0
DWIDTH 6 0
BBX 6 8 0 0
BITMAP
30
00
00
88
88
C4
A4
98
ENDCHAR
STARTCHAR ncaron
ENCODING 328
SWIDTH 459 0
DWIDTH 5 0
BBX 4 6 0 0
BITMAP
70
00
F0
90
90
90
ENDCHAR
STARTCHAR napostrophe
ENCODING 329
SWIDTH 459 0
DWIDTH 5 0
BBX 4 7 0 0
BITMAP
40
40
00
F0
90
90
90
ENDCHAR
STARTCHAR Omacron
ENCODING 332
SWIDTH 609 0
DWIDTH 6 0
BBX 6 7 0 0
BITMAP
30
00
60
98
84
84
78
ENDCHAR
STARTCHAR omacron
ENCODING 333
SWIDTH 487 0
DWIDTH 5 0
BBX 5 5 0 0
BITMAP
70
70
88
88
70
ENDCHAR
STARTCHAR Obreve
ENCODING 334
SWIDTH 609 0
DWIDTH 6 0
BBX 6 7 0 0
BITMAP
30
00
60
98
84
84
78
ENDCHAR
STARTCHAR obreve
ENCODING 335
SWIDTH 487 0
DWIDTH 5 0
BBX 5 6 0 0
BITMAP
60
00
70
88
88
70
ENDCHAR
STARTCHAR Ohungarumlaut
ENCODING 336
SWIDTH 609 0
DWIDTH 6 0
BBX 6 8 0 0
BITMAP
20
70
00
60
98
84
84
78
ENDCHAR
STARTCHAR ohungarumlaut
ENCODING 337
SWIDTH 487 0
DWIDTH 5 0
BBX 5 6 0 0
BITMAP
40
60
70
88
88
70
ENDCHAR
STARTCHAR OE
ENCODING 338
SWIDTH 848 0
DWIDTH 8 0
BBX 8 5 0 0
BITMAP
6F
90
8F
90
7F
ENDCHAR
STARTCHAR oe
ENCODING 339
SWIDTH 875 0
DWIDTH 9 0
BBX 9 5 0 0
BITMAP
0600
7A00
8A00
8C00
7780
ENDCHAR
STARTCHAR Racute
ENCODING 340
SWIDTH 579 0
DWIDTH 6 0
BBX 6 8 0 0
BITMAP
30
00
F8
48
70
40
60
5C
ENDCHAR
STARTCHAR racute
ENCODING 341
SWIDTH 346 0
DWIDTH 3 0
BBX 3 6 0 0
BITMAP
60
40
A0
80
80
80
ENDCHAR
STARTCHAR Rcommaaccent
ENCODING 342
SWIDTH 579 0
DWIDTH 6 0
BBX 6 9 0 -3
BITMAP
F8
48
70
40
60
58
04
20
20
ENDCHAR
STARTCHAR rcommaaccent
ENCODING 343
SWIDTH 346 0
DWIDTH 3 0
BBX 3 8 0 -3
BITMAP
40
A0
80
80
80
00
40
40
ENDCHAR
STARTCHAR Rcaron
ENCODING 344
SWIDTH 579 0
DWIDTH 6 0
BBX 6 8 0 0
BITMAP
30
00
F8
48
70
40
60
5C
ENDCHAR
STARTCHAR rcaron
ENCODING 345
SWIDTH 346 0
DWIDTH 3 0
BBX 3 6 0 0
BITMAP
E0
40
A0
80
80
80
ENDCHAR
STARTCHAR Sacute
ENCODING 346
SWIDTH 627 0
DWIDTH 6 0
BBX 6 8 0 0
BITMAP
30
00
38
40
20
18
84
7C
ENDCHAR
STARTCHAR sacute
ENCODING 347
SWIDTH 514 0
DWIDTH 5 0
BBX 5 6 0 0
BITMAP
30
20
E0
60
18
F8
ENDCHAR
STARTCHAR Scircumflex
ENCODING 348
SWIDTH 627 0
DWIDTH 6 0
BBX 6 9 0 0
BITMAP
10
38
00
38
40
20
18
84
7C
ENDCHAR
STARTCHAR scircumflex
ENCODING 349
SWIDTH 514 0
DWIDTH 5 0
BBX 5 7 0 0
BITMAP
20
50
20
E0
60
18
F8
ENDCHAR
STARTCHAR Scedilla
ENCODING 350
SWIDTH 627 0
DWIDTH 6 0
BBX 6 9 0 -3
BITMAP
38
40
20
18
84
6C
50
30
30
ENDCHAR
STARTCHAR scedilla
ENCODING 351
SWIDTH 514 0
DWIDTH 5 0
BBX 5 8 0 -3
BITMAP
20
E0
60
18
F8
40
30
70
ENDCHAR
STARTCHAR Scaron
ENCODING 352
SWIDTH 627 0
DWIDTH 6 0
BBX 6 8 0 0
BITMAP
30
00
38
40
20
18
84
7C
ENDCHAR
STARTCHAR scaron
ENCODING 353
SWIDTH 514 0
DWIDTH 5 0
BBX 5 6 0 0
BITMAP
70
20
E0
60
18
F8
ENDCHAR
STARTCHAR Tcommaaccent
ENCODING 354
SWIDTH 581 0
DWIDTH 6 0
BBX 7 9 0 -3
BITMAP
FE
10
10
10
10
10
08
10
10
ENDCHAR
STARTCHAR tcommaaccent
ENCODING 355
SWIDTH 328 0
DWIDTH 3 0
BBX 3 9 0 -3
BITMAP
40
40
E0
40
40
40
00
40
40
ENDCHAR
STARTCHAR Tcaron
ENCODING 356
SWIDTH 581 0
DWIDTH 6 0
BBX 7 8 0 0
BITMAP
30
00
FE
10
10
10
10
18
ENDCHAR
STARTCHAR tcaron
ENCODING 357
SWIDTH 431 0
DWIDTH 4 0
BBX 4 7 0 0
BITMAP
10
50
40
E0
40
40
40
ENDCHAR
STARTCHAR Utilde
ENCODING 360
SWIDTH 571 0
DWIDTH 6 0
BBX 6 7 0 0
BITMAP
78
00
88
88
88
88
74
ENDCHAR
STARTCHAR utilde
ENCODING 361
SWIDTH 501 0
DWIDTH 5 0
BBX 5 6 0 0
BITMAP
F0
00
90
90
90
68
ENDCHAR
STARTCHAR Umacron
ENCODING 362
SWIDTH 571 0
DWIDTH 6 0
BBX 6 7 0 0
BITMAP
30
00
88
88
88
88
74
ENDCHAR
STARTCHAR umacron
ENCODING 363
SWIDTH 501 0
DWIDTH 5 0
BBX 5 6 0 0
BITMAP
70
00
90
90
90
68
ENDCHAR
STARTCHAR Ubreve
ENCODING 364
SWIDTH 571 0
DWIDTH 6 0
BBX 6 7 0 0
BITMAP
30
00
88
88
88
88
74
ENDCHAR
STARTCHAR ubreve
ENCODING 365
SWIDTH 501 0
DWIDTH 5 0
BBX 5 6 0 0
BITMAP
60
00
90
90
90
68
ENDCHAR
STARTCHAR Uring
ENCODING 366
SWIDTH 571 0
DWIDTH 6 0
BBX 6 8 0 0
BITMAP
20
50
20
88
88
88
88
74
ENDCHAR
STARTCHAR uring
ENCODING 367
SWIDTH 501 0
DWIDTH 5 0
BBX 5 6 0 0
BITMAP
20
60
90
90
90
68
ENDCHAR
STARTCHAR Uhungarumlaut
ENCODING 368
SWIDTH 571 0
DWIDTH 6 0
BBX 6 8 0 0
BITMAP
20
70
00
88
88
88
88
74
ENDCHAR
STARTCHAR uhungarumlaut
ENCODING 369
SWIDTH 501 0
DWIDTH 5 0
BBX 5 7 0 0
BITMAP
20
70
00
90
90
90
68
ENDCHAR
STARTCHAR Uogonek
ENCODING 370
SWIDTH 571 0
DWIDTH 6 0
BBX 6 7 0 -2
BITMAP
88
88
88
88
54
28
04
ENDCHAR
STARTCHAR uogonek
ENCODING 371
SWIDTH 501 0
DWIDTH 5 0
BBX 5 6 0 -1
BITMAP
80
90
90
90
68
18
ENDCHAR
STARTCHAR Wcircumflex
ENCODING 372
SWIDTH 703 0
DWIDTH 7 0
BBX 7 9 0 0
BITMAP
10
28
00
00
84
82
A2
92
6C
ENDCHAR
STARTCHAR wcircumflex
ENCODING 373
SWIDTH 656 0
DWIDTH 7 0
BBX 6 7 0 0
BITMAP
10
28
00
84
94
94
6C
ENDCHAR
STARTCHAR Ycircumflex
ENCODING 374
SWIDTH 403 0
DWIDTH 4 0
BBX 4 9 0 0
BITMAP
20
E0
00
90
50
20
20
20
40
ENDCHAR
STARTCHAR ycircumflex
ENCODING 375
SWIDTH 487 0
DWIDTH 5 0
BBX 5 12 0 -5
BITMAP
20
50
00
90
88
88
78
08
08
08
90
70
ENDCHAR
STARTCHAR Ydieresis
ENCODING 376
SWIDTH 403 0
DWIDTH 4 0
BBX 4 7 0 0
BITMAP
60
90
50
20
20
20
40
ENDCHAR
STARTCHAR Zacute
ENCODING 377
SWIDTH 571 0
DWIDTH 6 0
BBX 6 8 0 0
BITMAP
30
00
F0
10
10
68
20
3C
ENDCHAR
STARTCHAR zacute
ENCODING 378
SWIDTH 459 0
DWIDTH 5 0
BBX 4 7 0 0
BITMAP
60
00
E0
20
F0
40
70
ENDCHAR
STARTCHAR Zdotaccent
ENCODING 379
SWIDTH 571 0
DWIDTH 6 0
BBX 6 8 0 0
BITMAP
40
20
F0
10
10
68
20
3C
ENDCHAR
STARTCHAR zdotaccent
ENCODING 380
SWIDTH 459 0
DWIDTH 5 0
BBX 4 7 0 0
BITMAP
40
20
E0
20
F0
40
70
ENDCHAR
STARTCHAR Zcaron
ENCODING 381
SWIDTH 571 0
DWIDTH 6 0
BBX 6 8 0 0
BITMAP
70
00
F0
10
10
68
20
3C
ENDCHAR
STARTCHAR zcaron
ENCODING 382
SWIDTH 459 0
DWIDTH 5 0
BBX 4 7 0 0
BITMAP
60
00
E0
20
F0
40
70
ENDCHAR
STARTCHAR florin
ENCODING 402
SWIDTH 376 0
DWIDTH 4 0
BBX 6 10 -1 -3
BITMAP
18
24
20
20
78
20
20
20
A0
40
ENDCHAR
STARTCHAR AEacute
ENCODING 508
SWIDTH 960 0
DWIDTH 10 0
BBX 9 8 0 0
BITMAP
2C00
D000
8F80
8400
8780
F800
8800
8780
ENDCHAR
STARTCHAR aeacute
ENCODING 509
SWIDTH 881 0
DWIDTH 9 0
BBX 9 7 0 0
BITMAP
0800
0000
6600
1900
7A00
8C00
7F80
ENDCHAR
STARTCHAR Oslashacute
ENCODING 510
SWIDTH 609 0
DWIDTH 6 0
BBX 6 8 0 -1
BITMAP
30
40
70
98
A4
A4
78
40
ENDCHAR
STARTCHAR oslashacute
ENCODING 511
SWIDTH 487 0
DWIDTH 5 0
BBX 5 6 0 0
BITMAP
20
40
70
A8
A8
70
ENDCHAR
STARTCHAR Scommaaccent
ENCODING 536
SWIDTH 627 0
DWIDTH 6 0
BBX 6 9 0 -3
BITMAP
38
40
20
18
84
6C
10
20
20
ENDCHAR
STARTCHAR scommaaccent
ENCODING 537
SWIDTH 514 0
DWIDTH 5 0
BBX 5 8 0 -3
BITMAP
20
E0
60
18
F8
00
20
20
ENDCHAR
STARTCHAR circumflex
ENCODING 710
SWIDTH 375 0
DWIDTH 4 0
BBX 3 2 0 5
BITMAP
60
A0
ENDCHAR
STARTCHAR caron
ENCODING 711
SWIDTH 375 0
DWIDTH 4 0
BBX 2 1 1 5
BITMAP
C0
ENDCHAR
STARTCHAR breve
ENCODING 728
SWIDTH 224 0
DWIDTH 2 0
BBX 2 1 0 4
BITMAP
C0
ENDCHAR
STARTCHAR dotaccent
ENCODING 729
SWIDTH 152 0
DWIDTH 2 0
BBX 1 1 0 5
BITMAP
80
ENDCHAR
STARTCHAR ring
ENCODING 730
SWIDTH 333 0
DWIDTH 3 0
BBX 2 2 1 4
BITMAP
80
C0
ENDCHAR
STARTCHAR ogonek
ENCODING 731
SWIDTH 254 0
DWIDTH 3 0
BBX 2 1 0 -1
BITMAP
C0
ENDCHAR
STARTCHAR tilde
ENCODING 732
SWIDTH 402 0
DWIDTH 4 0
BBX 4 1 0 4
BITMAP
F0
ENDCHAR
STARTCHAR hungarumlaut
ENCODING 733
SWIDTH 264 0
DWIDTH 3 0
BBX 3 2 0 4
BITMAP
80
E0
ENDCHAR
STARTCHAR Wgrave
ENCODING 7808
SWIDTH 703 0
DWIDTH 7 0
BBX 7 8 0 0
BITMAP
20
10
00
84
82
A2
92
6C
ENDCHAR
STARTCHAR wgrave
ENCODING 7809
SWIDTH 656 0
DWIDTH 7 0
BBX 6 6 0 0
BITMAP
20
10
84
94
94
6C
ENDCHAR
STARTCHAR Wacute
ENCODING 7810
SWIDTH 703 0
DWIDTH 7 0
BBX 7 7 0 0
BITMAP
30
00
84
82
A2
92
6C
ENDCHAR
STARTCHAR wacute
ENCODING 7811
SWIDTH 656 0
DWIDTH 7 0
BBX 6 6 0 0
BITMAP
30
00
84
94
94
6C
ENDCHAR
STARTCHAR Wdieresis
ENCODING 7812
SWIDTH 703 0
DWIDTH 7 0
BBX 7 7 0 0
BITMAP
28
00
84
82
A2
92
6C
ENDCHAR
STARTCHAR wdieresis
ENCODING 7813
SWIDTH 656 0
DWIDTH 7 0
BBX 6 5 0 0
BITMAP
38
84
94
94
6C
ENDCHAR
STARTCHAR Ygrave
ENCODING 7922
SWIDTH 403 0
DWIDTH 4 0
BBX 4 9 0 0
BITMAP
40
20
00
90
50
20
20
20
40
ENDCHAR
STARTCHAR ygrave
ENCODING 7923
SWIDTH 487 0
DWIDTH 5 0
BBX 5 11 0 -5
BITMAP
40
20
90
88
88
78
08
08
08
90
70
ENDCHAR
STARTCHAR endash
ENCODING 8211
SWIDTH 287 0
DWIDTH 3 0
BBX 3 1 0 2
BITMAP
E0
ENDCHAR
STARTCHAR emdash
ENCODING 8212
SWIDTH 512 0
DWIDTH 5 0
BBX 5 1 0 2
BITMAP
F8
ENDCHAR
STARTCHAR quoteleft
ENCODING 8216
SWIDTH 102 0
DWIDTH 1 0
BBX 1 2 0 5
BITMAP
80
80
ENDCHAR
STARTCHAR quoteright
ENCODING 8217
SWIDTH 102 0
DWIDTH 1 0
BBX 1 2 0 5
BITMAP
80
80
ENDCHAR
STARTCHAR quotesinglbase
ENCODING 8218
SWIDTH 102 0
DWIDTH 1 0
BBX 1 2 0 0
BITMAP
80
80
ENDCHAR
STARTCHAR quotedblleft
ENCODING 8220
SWIDTH 234 0
DWIDTH 2 0
BBX 2 3 0 5
BITMAP
C0
C0
C0
ENDCHAR
STARTCHAR quotedblright
ENCODING 8221
SWIDTH 234 0
DWIDTH 2 0
BBX 2 3 0 5
BITMAP
C0
C0
C0
ENDCHAR
STARTCHAR quotedblbase
ENCODING 8222
SWIDTH 341 0
DWIDTH 3 0
BBX 2 3 1 -1
BITMAP
80
C0
C0
ENDCHAR
STARTCHAR dagger
ENCODING 8224
SWIDTH 375 0
DWIDTH 4 0
BBX 3 6 0 0
BITMAP
40
40
E0
40
40
40
ENDCHAR
STARTCHAR daggerdbl
ENCODING 8225
SWIDTH 375 0
DWIDTH 4 0
BBX 5 7 -1 0
BITMAP
20
20
F8
20
78
20
20
ENDCHAR
STARTCHAR bullet
ENCODING 8226
SWIDTH 341 0
DWIDTH 3 0
BBX 2 2 1 2
BITMAP
80
C0
ENDCHAR
STARTCHAR ellipsis
ENCODING 8230
SWIDTH 612 0
DWIDTH 6 0
BBX 6 2 0 0
BITMAP
54
F4
ENDCHAR
STARTCHAR guilsinglleft
ENCODING 8249
SWIDTH 487 0
DWIDTH 5 0
BBX 5 4 0 0
BITMAP
18
20
C0
70
ENDCHAR
STARTCHAR guilsinglright
ENCODING 8250
SWIDTH 403 0
DWIDTH 4 0
BBX 4 5 0 0
BITMAP
80
60
10
20
C0
ENDCHAR
STARTCHAR fraction
ENCODING 8260
SWIDTH 309 0
DWIDTH 3 0
BBX 3 8 0 0
BITMAP
20
20
20
40
40
40
80
80
ENDCHAR
STARTCHAR Euro
ENCODING 8364
SWIDTH 741 0
DWIDTH 7 0
BBX 7 7 0 0
BITMAP
04
18
EC
20
D8
40
3E
ENDCHAR
STARTCHAR trademark
ENCODING 8482
SWIDTH 1116 0
DWIDTH 11 0
BBX 11 6 0 0
BITMAP
FE20
1340
12C0
1220
1220
1A20
ENDCHAR
STARTCHAR minus
ENCODING 8722
SWIDTH 287 0
DWIDTH 3 0
BBX 3 1 0 2
BITMAP
E0
ENDCHAR
STARTCHAR commaaccent
ENCODING 63171
SWIDTH 375 0
DWIDTH 4 0
BBX 1 2 1 -3
BITMAP
80
80
ENDCHAR
STARTCHAR fi
ENCODING 64257
SWIDTH 551 0
DWIDTH 6 0
BBX 5 7 0 0
BITMAP
30
68
90
50
F0
50
30
ENDCHAR
STARTCHAR fl
ENCODING 64258
SWIDTH 723 0
DWIDTH 7 0
BBX 5 7 0 0
BITMAP
30
58
90
50
F0
50
30
ENDCHAR
STARTCHAR .notdef
ENCODING -1
SWIDTH 375 0
DWIDTH 4 0
BBX 1 1 0 0
BITMAP
00
ENDCHAR
STARTCHAR .null
ENCODING -1
SWIDTH 0 0
DWIDTH 0 0
BBX 1 1 0 0
BITMAP
00
ENDCHAR
STARTCHAR nonmarkingreturn
ENCODING -1
SWIDTH 375 0
DWIDTH 4 0
BBX 1 1 0 0
BITMAP
00
ENDCHAR
ENDFONT
